grf
version=1
nRows=6
nColumns=37
inDegrees=no
endheader
time	ground_force_1_vx	ground_force_1_vy	ground_force_1_vz	ground_force_1_px	ground_force_1_py	ground_force_1_pz	ground_moment_1_mx	ground_moment_1_my	ground_moment_1_mz	ground_force_2_vx	ground_force_2_vy	ground_force_2_vz	ground_force_2_px	ground_force_2_py	ground_force_2_pz	ground_moment_2_mx	ground_moment_2_my	ground_moment_2_mz	ground_force_3_vx	ground_force_3_vy	ground_force_3_vz	ground_force_3_px	ground_force_3_py	ground_force_3_pz	ground_moment_3_mx	ground_moment_3_my	ground_moment_3_mz	ground_force_4_vx	ground_force_4_vy	ground_force_4_vz	ground_force_4_px	ground_force_4_py	ground_force_4_pz	ground_moment_4_mx	ground_moment_4_my	ground_moment_4_mz
      3.07000000	      0.00000000	     -0.00000000	      0.00000000	      0.00000000	      0.00000000	      0.00000000	      0.00000000	      0.00000000	      0.00000000	     17.58224678	      5.87483740	   -354.94586182	   -376.36027515	  -1068.79743452	      0.00000000	      0.00000000	     -0.00000000	   7566.59640916	     23.62892350	      1.01154872	   -278.21115112	   -364.64036007	   -732.69439412	      0.00000000	      0.00000000	     -0.00000000	  -5618.40218164	      0.00000000	     -0.00000000	      0.00000000	      0.00000000	      0.00000000	      0.00000000	      0.00000000	      0.00000000	      0.00000000
      3.08000000	      0.00000000	     -0.00000000	      0.00000000	      0.00000000	      0.00000000	      0.00000000	      0.00000000	      0.00000000	      0.00000000	     21.49973297	      5.83437395	   -367.11599731	   -376.95138905	  -1069.23455714	      0.00000000	      0.00000000	     -0.00000000	   8167.38976149	     25.17761043	      0.36946482	   -293.76266479	   -366.04368656	   -732.14546273	      0.00000000	      0.00000000	      0.00000000	  -5869.35163266	      0.00000000	     -0.00000000	      0.00000000	      0.00000000	      0.00000000	      0.00000000	      0.00000000	      0.00000000	      0.00000000
      3.09000000	      0.00000000	     -0.00000000	      0.00000000	      0.00000000	      0.00000000	      0.00000000	      0.00000000	      0.00000000	      0.00000000	     25.69946480	      5.56723404	   -380.04870605	   -378.30384096	  -1067.95753686	      0.00000000	      0.00000000	      0.00000000	   8622.33219401	     28.19340322	     -0.31281274	   -315.85134888	   -366.18610545	   -732.18943041	      0.00000000	      0.00000000	     -0.00000000	  -6289.86647847	      0.00000000	     -0.00000000	      0.00000000	      0.00000000	      0.00000000	      0.00000000	      0.00000000	      0.00000000	      0.00000000
      3.10000000	      0.00000000	     -0.00000000	      0.00000000	      0.00000000	      0.00000000	      0.00000000	      0.00000000	      0.00000000	      0.00000000	     33.02085114	      5.23479223	   -398.99862671	   -378.91935645	  -1068.02144536	      0.00000000	      0.00000000	      0.00000000	   9171.94812849	     32.76526627	     -1.64447666	   -337.05325317	   -367.35734503	   -733.77367928	      0.00000000	      0.00000000	     -0.00000000	  -6534.76196348	      0.00000000	     -0.00000000	      0.00000000	      0.00000000	      0.00000000	      0.00000000	      0.00000000	      0.00000000	      0.00000000
      3.11000000	      0.00000000	     -0.00000000	      0.00000000	      0.00000000	      0.00000000	      0.00000000	      0.00000000	      0.00000000	      0.00000000	     42.51182938	      4.67632580	   -422.82672119	   -378.08656427	  -1070.42329522	      0.00000000	      0.00000000	      0.00000000	   9340.39810419	     37.79079415	     -2.53760573	   -358.86010742	   -367.85390494	   -731.56137787	      0.00000000	      0.00000000	     -0.00000000	  -6935.81448096	      0.00000000	     -0.00000000	      0.00000000	      0.00000000	      0.00000000	      0.00000000	      0.00000000	      0.00000000	      0.00000000
      3.12000000	      0.00000000	     -0.00000000	      0.00000000	      0.00000000	      0.00000000	      0.00000000	      0.00000000	      0.00000000	      0.00000000	     49.67211151	      5.19876957	   -445.71307373	   -376.57188415	  -1068.27880855	      0.00000000	      0.00000000	      0.00000000	   9652.96010212	     43.12567109	     -3.35014029	   -379.64517212	   -366.42231120	   -732.56795601	      0.00000000	      0.00000000	      0.00000000	  -7551.32544579	      0.00000000	     -0.00000000	      0.00000000	      0.00000000	      0.00000000	      0.00000000	      0.00000000	      0.00000000	      0.00000000
